<svg width="23" height="18" viewBox="0 0 23 18" fill="none" xmlns="http://www.w3.org/2000/svg">
<path d="M16.1458 11H15.1254L14.7638 10.73C16.0296 9.59 16.7917 8.11 16.7917 6.5C16.7917 2.91 13.0329 0 8.39583 0C3.75875 0 0 2.91 0 6.5C0 10.09 3.75875 13 8.39583 13C10.4754 13 12.3871 12.41 13.8596 11.43L14.2083 11.71V12.5L20.6667 17.49L22.5912 16L16.1458 11ZM8.39583 11C5.17958 11 2.58333 8.99 2.58333 6.5C2.58333 4.01 5.17958 2 8.39583 2C11.6121 2 14.2083 4.01 14.2083 6.5C14.2083 8.99 11.6121 11 8.39583 11Z" fill="#C3E1E5"/>
</svg>
